<svg xmlns="http://www.w3.org/2000/svg" width="1045.17" height="300.37" viewBox="0 0 1045.17 300.37"><path d="M98.57,103l-2.26,31.26a59.54,59.54,0,0,0-16.61-2.53q-16.62,0-16.62,18v9H92.94v34.08H63.08V297.27H17.74V192.79H0V158.71H17.74v-7.6q0-25.91,11.27-37.46Q42.53,99.29,67.87,99.29a119.84,119.84,0,0,1,15.49,1q7.61,1,11.55,1.83l3.66.84Z" style="fill:#0a0a0a;fill-rule:evenodd"/><path d="M231.78,223.77q0-30.42-19.29-49.15T162.22,155.9q-32.1,0-53.51,19.43T87.31,228q0,33.8,20.56,53.09t53.5,19.29a140.36,140.36,0,0,0,16.9-1,78.43,78.43,0,0,0,14.36-2.95q6.19-2,11.27-3.81a47.32,47.32,0,0,0,9.29-4.5c2.82-1.79,5-3.19,6.48-4.23s3.19-2.3,5.07-3.8l2.53-2.25-17.74-23.38q-19.42,13.25-41.68,13.24-14.64,0-24.36-7.32t-11.12-21.69h98.85Zm-99.13-10.7a30.65,30.65,0,0,1,8.17-19.44q7.59-8.44,20.55-8.44,13.24,0,20.7,8.58a29.93,29.93,0,0,1,7.75,19.3Z" style="fill:#0a0a0a;fill-rule:evenodd"/><path d="M381.88,223.77q0-30.42-19.29-49.15T312.32,155.9q-32.1,0-53.51,19.43T237.41,228q0,33.8,20.56,53.09t53.51,19.29a140.48,140.48,0,0,0,16.9-1,78.61,78.61,0,0,0,14.36-2.95q6.19-2,11.26-3.81a47.69,47.69,0,0,0,9.3-4.5c2.81-1.79,5-3.19,6.47-4.23s3.2-2.3,5.07-3.8l2.54-2.25-17.74-23.38Q340.2,267.71,318,267.7q-14.65,0-24.36-7.32t-11.13-21.69h98.85Zm-99.13-10.7a30.7,30.7,0,0,1,8.17-19.44q7.6-8.44,20.56-8.44,13.23,0,20.7,8.58a30,30,0,0,1,7.74,19.3Z" style="fill:#0a0a0a;fill-rule:evenodd"/><path d="M497.07,103v72.38q-4.79-7.05-15.91-13.24t-28-6.19q-29.56,0-47.59,20.41t-18,51.68q0,31.26,18,51.82t47.59,20.56q30.14,0,45.63-21.12l.84-.28-.28,18.3h42.81V103Zm-7.61,150.67q-8.73,9.86-23.37,9.86t-23.66-10q-9-10-9-26t9-26.05q9-10,23.66-10t23.51,10q8.88,10,8.88,26.05T489.46,253.62Z" style="fill:#0a0a0a;fill-rule:evenodd"/><path d="M607.46,102.11q7.32,6.48,7.32,16.89t-7,16.9q-7,6.48-18.59,6.48t-18.58-6.48q-7.05-6.48-7-16.9t7.18-16.89q7.17-6.48,18.44-6.48t18.31,6.48Z" style="fill:#0a0a0a;fill-rule:evenodd"/><polygon points="611.68 158.43 611.68 297.27 566.62 297.27 566.62 158.43 611.68 158.43 611.68 158.43" style="fill:#0a0a0a;fill-rule:evenodd"/><path d="M771.37,223.77q0-30.42-19.29-49.15T701.81,155.9q-32.12,0-53.51,19.43T626.89,228q0,33.8,20.56,53.09T701,300.37a140.48,140.48,0,0,0,16.9-1,78.61,78.61,0,0,0,14.36-2.95q6.19-2,11.27-3.81a47.6,47.6,0,0,0,9.29-4.5c2.82-1.79,5-3.19,6.48-4.23s3.19-2.3,5.07-3.8l2.53-2.25-17.74-23.38q-19.44,13.25-41.68,13.24-14.64,0-24.36-7.32T672,238.69H770.8Zm-99.13-10.7a30.64,30.64,0,0,1,8.16-19.44q7.61-8.44,20.56-8.44,13.24,0,20.7,8.58a29.93,29.93,0,0,1,7.75,19.3Z" style="fill:#0a0a0a;fill-rule:evenodd"/><path d="M878.94,158.43l-2.53,41.4h-2q-6.2-3.37-16.34-3.38-13.23,0-20.84,10.14-7,9.28-7,29v61.67H785.16V158.43h45.06l-.28,19.71h.56q11.55-22.24,34.36-22.24a48.73,48.73,0,0,1,7.75.56,26.06,26.06,0,0,1,4.92,1.13l1.41.84Z" style="fill:#0a0a0a;fill-rule:evenodd"/><path d="M966.9,0c-43.23,0-78.27,33.81-78.19,75.56a73,73,0,0,0,12.42,40.77,12.05,12.05,0,0,1,.94,1.39,11.33,11.33,0,0,1,1.46,5.49l-8.31,33.25,31.61-11.62a11.44,11.44,0,0,1,4.55-.9,12,12,0,0,1,4.21.75s0,0,.08,0a4.78,4.78,0,0,1,.64.26,80.57,80.57,0,0,0,30.59,6c43.23,0,78.27-33.77,78.27-75.48S1010.13,0,966.9,0ZM930.78,90.27a12,12,0,1,1,12-12A12,12,0,0,1,930.78,90.27Zm36.12,0a12,12,0,1,1,12-12A12,12,0,0,1,966.9,90.27Zm36.12,0a12,12,0,1,1,12-12A12,12,0,0,1,1003,90.27Z" style="fill:#0a0a0a;fill-rule:evenodd"/></svg>